<?xml version="1.0" encoding="utf-8"?>
<svg viewBox="50 50 450 450" width="400" height="400" xmlns="http://www.w3.org/2000/svg" xmlns:bx="https://boxy-svg.com">
  <defs>
    <linearGradient id="color-0" bx:pinned="true">
      <stop style="stop-color: rgb(0, 0, 0);"/>
    </linearGradient>
    <clipPath id="clip1">
      <path d="M 137 179 L 356.519531 179 L 356.519531 335 L 137 335 Z M 137 179 "/>
    </clipPath>
    <clipPath id="clip2">
      <path d="M 277 109 L 356.519531 109 L 356.519531 184 L 277 184 Z M 277 109 "/>
    </clipPath>
    <clipPath id="clip3">
      <path d="M 96 159 L 356.519531 159 L 356.519531 296 L 96 296 Z M 96 159 "/>
    </clipPath>
    <clipPath id="clip4">
      <path d="M 117 0 L 327 0 L 327 343.339844 L 117 343.339844 Z M 117 0 "/>
    </clipPath>
    <clipPath id="clip5">
      <path d="M 41 192 L 287 192 L 287 343.339844 L 41 343.339844 Z M 41 192 "/>
    </clipPath>
    <clipPath id="clip6">
      <path d="M 150 11 L 356.519531 11 L 356.519531 280 L 150 280 Z M 150 11 "/>
    </clipPath>
    <clipPath id="clip7">
      <path d="M 266 111 L 356.519531 111 L 356.519531 250 L 266 250 Z M 266 111 "/>
    </clipPath>
    <clipPath id="clip8">
      <path d="M 0 239 L 137 239 L 137 343.339844 L 0 343.339844 Z M 0 239 "/>
    </clipPath>
  </defs>
  <g id="surface1" transform="translate(78, 70)">
    <path style="stroke-width: 35; stroke-linecap: butt; stroke-linejoin: miter; stroke: rgb(0, 0, 0); stroke-opacity: 1; stroke-miterlimit: 10; fill: url(#color-0);" d="M 1066.71875 1910.626563 C 827.148438 1886.36875 632.96875 1818.790625 493.984375 1974.376563 C 461.484375 2012.228125 447.34375 2062.892188 446.015625 2118.7125 C 445.195313 2151.525 448.789063 2186.095313 455.664063 2220.860938 C 473.789063 2312.189063 514.492188 2404.845313 557.539063 2470.74375 C 662.890625 2632.032813 819.023438 2688.829688 873.554688 2707.735938 C 934.609375 2728.946875 995.234375 2739.454688 1054.179688 2742.032813 C 1038.554688 2671.173438 1025.46875 2593.946875 1017.070313 2511.173438 C 942.773438 2497.071875 865.039063 2448.0875 790.429688 2344.9625 C 790 2340.939063 789.6875 2336.876563 789.453125 2332.892188 C 787.226563 2293.751563 794.960938 2257.657813 814.453125 2229.025 C 847.421875 2180.235938 914.179688 2152.696875 1023.28125 2167.071875 C 1032.304688 2093.55625 1046.132813 2007.657813 1066.71875 1910.626563 Z M 1066.71875 1910.626563 " transform="matrix(0.1,0,0,-0.1,0,343.34)"/>
    <path style="stroke-width: 35; stroke-linecap: butt; stroke-linejoin: miter; stroke: rgb(0, 0, 0); stroke-opacity: 1; stroke-miterlimit: 10; fill: url(#color-0);" d="M 1312.578125 2221.251563 C 1298.085938 2208.478125 1283.476563 2194.884375 1269.0625 2180.5875 L 1262.65625 2174.18125 C 1254.648438 2166.017188 1246.640625 2157.735938 1238.710938 2149.064063 C 1236.875 2147.071875 1235 2145.040625 1233.203125 2143.009375 C 1230.195313 2139.728125 1227.226563 2136.446875 1224.335938 2133.048438 C 1221.367188 2129.728125 1218.4375 2126.329688 1215.585938 2122.892188 C 1212.695313 2119.49375 1209.726563 2116.017188 1206.914063 2112.501563 C 1203.984375 2108.985938 1201.09375 2105.509375 1198.242188 2101.876563 C 1195.195313 2098.0875 1192.148438 2094.259375 1189.179688 2090.314063 C 1186.132813 2086.407813 1183.164063 2082.423438 1180.234375 2078.439063 C 1177.226563 2074.454688 1174.257813 2070.392188 1171.367188 2066.290625 C 1168.554688 2062.4625 1165.859375 2058.595313 1163.164063 2054.65 C 1163.007813 2054.376563 1162.773438 2054.18125 1162.617188 2053.907813 C 1153.476563 2102.61875 1145.625 2150.392188 1138.984375 2197.189063 C 1198.320313 2213.009375 1256.601563 2220.196875 1312.578125 2221.251563 Z M 1312.578125 2221.251563 " transform="matrix(0.1,0,0,-0.1,0,343.34)"/>
    <path style="stroke-width: 35; stroke-linecap: butt; stroke-linejoin: miter; stroke: rgb(0, 0, 0); stroke-opacity: 1; stroke-miterlimit: 10; fill: url(#color-0);" d="M 1658.828125 2524.259375 C 1624.765625 2510.314063 1548.007813 2468.048438 1476.484375 2422.93125 L 1476.445313 2422.93125 C 1431.875 2394.80625 1389.335938 2365.5875 1360.351563 2341.485938 C 1342.695313 2365.548438 1321.015625 2390.196875 1296.054688 2413.048438 C 1245.546875 2459.532813 1181.757813 2498.751563 1111.523438 2511.407813 C 1110.390625 2557.228125 1110.78125 2601.407813 1112.578125 2643.673438 L 1112.578125 2644.376563 C 1114.0625 2678.048438 1116.484375 2710.509375 1119.726563 2741.68125 C 1402.148438 2727.071875 1632.148438 2545.9 1658.828125 2524.259375 Z M 1658.828125 2524.259375 " transform="matrix(0.1,0,0,-0.1,0,343.34)"/>
    <path style="stroke-width: 35; stroke-linecap: butt; stroke-linejoin: miter; stroke: rgb(0, 0, 0); stroke-opacity: 1; stroke-miterlimit: 10; fill: url(#color-0);" d="M 744.726563 1247.735938 C 624.023438 1283.595313 515.859375 1324.9625 423.59375 1370.74375 C 422.773438 1378.126563 421.992188 1385.548438 421.328125 1393.048438 C 412.539063 1493.439063 421.601563 1580.860938 434.726563 1649.18125 C 445.117188 1656.564063 455.546875 1663.946875 465.9375 1671.329688 C 591.757813 1669.142188 693.242188 1657.071875 799.960938 1605.782813 C 800.625 1604.142188 801.210938 1602.501563 801.757813 1600.782813 C 804.0625 1589.884375 805 1583.478125 804.53125 1577.30625 C 803.125 1555.626563 795.703125 1539.532813 791.914063 1532.61875 C 771.25 1494.571875 744.140625 1448.126563 739.765625 1440.235938 C 708.984375 1385.196875 727.578125 1318.7125 738.828125 1278.282813 C 741.328125 1269.3375 744.179688 1260.782813 747.34375 1252.579688 C 748.125 1250.470313 749.023438 1248.321875 749.882813 1246.251563 C 748.203125 1246.68125 746.445313 1247.228125 744.726563 1247.735938 Z M 744.726563 1247.735938 " transform="matrix(0.1,0,0,-0.1,0,343.34)"/>
    <path style="stroke-width: 35; stroke-linecap: butt; stroke-linejoin: miter; stroke: rgb(0, 0, 0); stroke-opacity: 1; stroke-miterlimit: 10; fill: url(#color-0);" d="M 1482.460938 801.485938 L 1482.382813 801.485938 C 1478.710938 799.884375 1475.078125 798.4 1471.367188 796.954688 C 1468.632813 795.782813 1465.898438 794.689063 1463.164063 793.673438 C 1459.921875 792.345313 1456.640625 791.095313 1453.359375 789.80625 C 1447.382813 787.579688 1441.445313 785.353125 1435.429688 783.204688 C 1430.507813 781.446875 1425.546875 779.728125 1420.546875 778.0875 C 1416.601563 776.720313 1412.695313 775.43125 1408.75 774.18125 C 1406.523438 773.439063 1404.257813 772.696875 1402.03125 772.071875 C 1400.9375 771.68125 1399.84375 771.329688 1398.75 771.017188 C 1395.46875 770.001563 1392.148438 768.985938 1388.867188 768.009375 C 1383.554688 766.407813 1378.203125 764.884375 1372.8125 763.4 C 1367.460938 761.954688 1362.109375 760.470313 1356.71875 759.103125 C 1139.960938 703.282813 896.171875 726.720313 668.671875 869.376563 C 646.992188 883.048438 625.390625 897.775 604.023438 913.55625 C 603.359375 914.454688 602.734375 915.314063 602.109375 916.251563 C 554.804688 981.720313 482.34375 1098.24375 443.90625 1256.05625 C 519.648438 1217.501563 603.90625 1182.071875 695.3125 1150.235938 C 728.476563 1138.673438 762.65625 1127.61875 797.734375 1117.032813 C 823.203125 1109.376563 849.179688 1101.954688 875.625 1094.845313 C 875.625 1094.80625 875.703125 1094.80625 875.742188 1094.80625 C 948.398438 1044.18125 1054.53125 1014.923438 1161.367188 1005.196875 C 1220 999.845313 1278.828125 1000.43125 1332.539063 1006.564063 C 1332.890625 1006.564063 1333.359375 1006.525 1333.710938 1006.525 L 1334.023438 1006.525 C 1348.398438 1004.689063 1362.890625 1003.009375 1377.421875 1001.36875 C 1411.09375 931.798438 1446.210938 865.040625 1482.460938 801.485938 Z M 1482.460938 801.485938 " transform="matrix(0.1,0,0,-0.1,0,343.34)"/>
    <path style="stroke-width: 35; stroke-linecap: butt; stroke-linejoin: miter; stroke: rgb(0, 0, 0); stroke-opacity: 1; stroke-miterlimit: 10; fill: url(#color-0);" d="M 1755.507813 977.501563 C 1734.375 957.853125 1712.148438 939.103125 1689.0625 921.36875 C 1680 914.376563 1670.742188 907.61875 1661.328125 900.939063 C 1658.125 898.634375 1654.84375 896.329688 1651.5625 894.103125 C 1646.757813 890.74375 1641.835938 887.423438 1636.914063 884.18125 C 1633.203125 881.759375 1629.53125 879.298438 1625.742188 876.915625 C 1616.40625 870.9 1606.953125 865.079688 1597.382813 859.376563 C 1593.554688 857.071875 1589.726563 854.845313 1585.898438 852.657813 C 1562.265625 896.407813 1539.101563 941.642188 1516.40625 988.282813 C 1570.859375 984.18125 1626.09375 981.173438 1681.953125 979.298438 C 1706.601563 978.478125 1731.09375 977.853125 1755.507813 977.501563 Z M 1755.507813 977.501563 " transform="matrix(0.1,0,0,-0.1,0,343.34)"/>
    <path style="stroke-width: 35; stroke-linecap: butt; stroke-linejoin: miter; stroke: rgb(0, 0, 0); stroke-opacity: 1; stroke-miterlimit: 10; fill: url(#color-0);" d="M 1867.148438 1103.360938 C 1806.601563 1102.93125 1745.039063 1103.7125 1682.734375 1105.821875 C 1632.304688 1107.540625 1582.5 1110.11875 1533.359375 1113.4 C 1665.625 1258.321875 1754.21875 1516.68125 1691.289063 1671.017188 C 1647.226563 1779.103125 1549.335938 1837.540625 1481.09375 1874.298438 C 1470.546875 1877.853125 1459.960938 1881.05625 1449.53125 1884.142188 C 1530.742188 2001.407813 1641.40625 2073.126563 1739.609375 2116.759375 C 1762.265625 2105.001563 1781.367188 2093.985938 1796.289063 2084.610938 C 1967.539063 1977.228125 2010.820313 1767.61875 2023.90625 1703.907813 C 2064.296875 1506.759375 2008.515625 1295.9 1867.148438 1103.360938 Z M 1867.148438 1103.360938 " transform="matrix(0.1,0,0,-0.1,0,343.34)"/>
    <path style="stroke-width: 35; stroke-linecap: butt; stroke-linejoin: miter; stroke: rgb(0, 0, 0); stroke-opacity: 1; stroke-miterlimit: 10; fill: url(#color-0);" d="M 2942.96875 1985.821875 C 2875.039063 1849.376563 2783.4375 1702.61875 2671.445313 1552.579688 C 2664.492188 1580.235938 2657.1875 1608.0875 2649.453125 1636.05625 C 2652.96875 1768.751563 2614.375 1895.939063 2534.921875 1994.884375 C 2533.007813 1997.30625 2531.054688 1999.65 2529.0625 2001.99375 C 2472.773438 2069.532813 2404.960938 2113.360938 2336.015625 2141.446875 C 2176.054688 2206.603125 2009.726563 2186.954688 1964.570313 2181.603125 C 1948.59375 2179.767188 1852.304688 2166.8375 1739.609375 2116.759375 C 1641.40625 2073.126563 1530.742188 2001.407813 1449.53125 1884.142188 C 1425.976563 1850.079688 1404.921875 1812.228125 1387.382813 1770.11875 C 1330.625 1634.064063 1326.09375 1490.5875 1357.851563 1359.454688 C 1346.796875 1389.103125 1335.976563 1419.025 1325.429688 1449.259375 C 1291.875 1545.470313 1262.226563 1640.782813 1236.601563 1734.220313 C 1222.96875 1783.751563 1210.46875 1832.775 1199.0625 1881.134375 C 1185.3125 1939.728125 1173.125 1997.423438 1162.617188 2053.907813 C 1162.773438 2054.142188 1162.96875 2054.376563 1163.164063 2054.65 C 1165.859375 2058.595313 1168.59375 2062.4625 1171.367188 2066.290625 C 1174.257813 2070.392188 1177.226563 2074.454688 1180.195313 2078.439063 C 1183.164063 2082.423438 1186.171875 2086.36875 1189.179688 2090.314063 C 1192.1875 2094.18125 1195.195313 2098.0875 1198.242188 2101.876563 C 1201.09375 2105.509375 1203.984375 2108.985938 1206.875 2112.501563 C 1209.726563 2116.017188 1212.695313 2119.49375 1215.585938 2122.892188 C 1218.476563 2126.329688 1221.445313 2129.728125 1224.335938 2133.048438 C 1227.304688 2136.407813 1230.234375 2139.728125 1233.203125 2143.009375 C 1235 2145.040625 1236.875 2147.071875 1238.710938 2149.064063 C 1246.640625 2157.735938 1254.648438 2166.017188 1262.65625 2174.18125 L 1269.0625 2180.5875 C 1283.515625 2194.884375 1298.085938 2208.478125 1312.578125 2221.251563 C 1345.976563 2250.704688 1379.179688 2276.290625 1410.195313 2298.595313 C 1439.101563 2319.454688 1466.171875 2337.4625 1489.960938 2353.282813 C 1521.640625 2374.3375 1559.453125 2399.415625 1603.28125 2424.689063 L 1603.359375 2424.689063 C 1703.59375 2482.540625 1835.859375 2541.407813 2001.523438 2556.017188 C 2013.085938 2556.99375 2024.804688 2557.814063 2036.679688 2558.360938 C 2093.4375 2561.095313 2151.71875 2558.439063 2210.15625 2550.548438 C 2230.625 2547.853125 2251.015625 2544.49375 2271.445313 2540.509375 C 2493.828125 2496.759375 2710.429688 2378.282813 2841.289063 2194.454688 L 2841.328125 2194.415625 C 2858.320313 2170.353125 2873.945313 2145.235938 2887.96875 2119.025 C 2897.1875 2101.603125 2905.625 2084.064063 2913.320313 2066.251563 L 2913.320313 2066.173438 C 2924.804688 2039.571875 2934.648438 2012.61875 2942.96875 1985.821875 Z M 2942.96875 1985.821875 " transform="matrix(0.1,0,0,-0.1,0,343.34)"/>
    <path style="stroke-width: 35; stroke-linecap: butt; stroke-linejoin: miter; stroke: rgb(0, 0, 0); stroke-opacity: 1; stroke-miterlimit: 10; fill: url(#color-0);" d="M 1316.640625 1133.478125 C 1233.90625 1143.24375 1153.828125 1155.314063 1076.601563 1169.376563 C 1056.015625 1220.509375 1037.773438 1278.165625 1025.195313 1341.915625 C 1022.96875 1353.24375 1015.390625 1393.907813 1011.367188 1453.478125 C 1007.617188 1509.728125 1007.109375 1582.814063 1017.5 1664.025 C 1026.210938 1732.071875 1042.617188 1805.782813 1071.09375 1879.9625 C 1071.5625 1881.2125 1072.03125 1882.501563 1072.5 1883.673438 C 1080.703125 1846.36875 1089.882813 1807.4625 1100.15625 1767.071875 C 1112.109375 1720.235938 1125.429688 1671.329688 1140.351563 1620.5875 C 1159.921875 1554.18125 1182.1875 1484.532813 1207.539063 1411.876563 C 1241.132813 1315.5875 1277.695313 1222.579688 1316.640625 1133.478125 Z M 1316.640625 1133.478125 " transform="matrix(0.1,0,0,-0.1,0,343.34)"/>
    <path style="stroke-width: 35; stroke-linecap: butt; stroke-linejoin: miter; stroke: rgb(0, 0, 0); stroke-opacity: 1; stroke-miterlimit: 10; fill: url(#color-0);" d="M 1584.101563 635.43125 C 1494.414063 665.548438 1419.648438 707.814063 1356.71875 759.103125 C 1362.109375 760.470313 1367.460938 761.954688 1372.851563 763.439063 C 1378.203125 764.884375 1383.554688 766.446875 1388.867188 768.009375 C 1392.148438 768.985938 1395.46875 769.9625 1398.75 771.017188 C 1399.84375 771.36875 1400.9375 771.68125 1402.03125 772.071875 C 1404.257813 772.735938 1406.523438 773.439063 1408.75 774.18125 C 1412.695313 775.43125 1416.640625 776.720313 1420.546875 778.0875 C 1425.546875 779.728125 1430.507813 781.485938 1435.429688 783.204688 C 1441.445313 785.353125 1447.382813 787.579688 1453.359375 789.80625 C 1456.640625 791.095313 1459.921875 792.345313 1463.164063 793.634375 C 1465.898438 794.689063 1468.632813 795.782813 1471.367188 796.915625 C 1475.078125 798.4 1478.710938 799.884375 1482.382813 801.485938 L 1482.460938 801.485938 C 1515.46875 743.4 1549.414063 687.970313 1584.101563 635.43125 Z M 1584.101563 635.43125 " transform="matrix(0.1,0,0,-0.1,0,343.34)"/>
    <path style="stroke-width: 35; stroke-linecap: butt; stroke-linejoin: miter; stroke: rgb(0, 0, 0); stroke-opacity: 1; stroke-miterlimit: 10; fill: url(#color-0);" d="M 2016.171875 858.4 C 1915.976563 773.321875 1815.898438 696.485938 1718.007813 628.946875 C 1673.007813 698.126563 1628.75 772.93125 1585.898438 852.657813 C 1589.726563 854.845313 1593.554688 857.071875 1597.382813 859.376563 C 1606.953125 865.040625 1616.40625 870.9 1625.742188 876.915625 C 1629.53125 879.298438 1633.203125 881.720313 1636.914063 884.18125 C 1641.835938 887.423438 1646.757813 890.74375 1651.5625 894.103125 C 1654.84375 896.329688 1658.125 898.634375 1661.367188 900.939063 C 1670.742188 907.61875 1680 914.376563 1689.0625 921.36875 C 1770.351563 879.142188 1890.390625 836.134375 2016.171875 858.4 Z M 2016.171875 858.4 " transform="matrix(0.1,0,0,-0.1,0,343.34)"/>
    <g clip-path="url(#clip1)" clip-rule="nonzero">
      <path style="stroke-width: 35; stroke-linecap: butt; stroke-linejoin: miter; stroke: rgb(0, 0, 0); stroke-opacity: 1; stroke-miterlimit: 10; fill: url(#color-0);" d="M 3148.164063 1011.095313 C 3129.179688 864.454688 2995.976563 780.001563 2921.679688 726.173438 C 2860.664063 708.946875 2811.132813 723.985938 2768.046875 749.49375 C 2729.726563 772.110938 2696.484375 803.009375 2664.882813 826.720313 C 2615.664063 863.634375 2570.351563 883.204688 2515.585938 827.501563 C 2434.375 741.68125 2175.898438 573.86875 1865.78125 585.470313 C 2005.195313 684.298438 2175.273438 822.61875 2361.328125 1008.634375 C 2364.492188 1011.798438 2367.695313 1014.9625 2370.859375 1018.204688 C 2466.054688 1033.009375 2556.796875 1051.564063 2642.109375 1073.55625 C 2680.234375 1083.360938 2717.382813 1093.86875 2753.28125 1105.001563 C 2792.460938 1117.15 2830.234375 1130.11875 2866.484375 1143.790625 C 3015.390625 1096.2125 3059.804688 1086.759375 3148.164063 1011.095313 Z M 3148.164063 1011.095313 " transform="matrix(0.1,0,0,-0.1,0,343.34)"/>
    </g>
    <path style="stroke-width: 35; stroke-linecap: butt; stroke-linejoin: miter; stroke: rgb(0, 0, 0); stroke-opacity: 1; stroke-miterlimit: 10; fill: url(#color-0);" d="M 2449.453125 1281.525 C 2404.21875 1230.821875 2356.835938 1180.235938 2307.578125 1130.079688 C 2262.929688 1124.80625 2217.34375 1120.275 2170.78125 1116.564063 C 2116.054688 1145.196875 2055.390625 1171.173438 2055.703125 1216.134375 C 2055.898438 1236.407813 2068.359375 1239.728125 2141.328125 1328.478125 C 2215.625 1418.751563 2214.257813 1428.946875 2232.617188 1432.4625 C 2298.828125 1445.079688 2345.585938 1305.9 2449.453125 1281.525 Z M 2449.453125 1281.525 " transform="matrix(0.1,0,0,-0.1,0,343.34)"/>
    <path style="stroke-width: 35; stroke-linecap: butt; stroke-linejoin: miter; stroke: rgb(0, 0, 0); stroke-opacity: 1; stroke-miterlimit: 10; fill: url(#color-0);" d="M 2991.601563 1626.329688 C 2991.523438 1551.99375 2983.671875 1505.001563 2974.492188 1467.892188 C 2952.03125 1377.345313 2910.9375 1304.923438 2870.195313 1250.470313 L 2851.445313 1245.5875 L 2851.445313 1245.665625 C 2815.742188 1233.673438 2778.4375 1222.30625 2739.570313 1211.642188 C 2702.773438 1201.564063 2664.6875 1192.110938 2625.234375 1183.321875 C 2586.054688 1174.49375 2545.625 1166.446875 2504.140625 1159.064063 C 2539.960938 1198.790625 2574.492188 1238.7125 2607.617188 1278.790625 C 2641.835938 1320.001563 2674.570313 1361.329688 2705.78125 1402.657813 C 2815.585938 1547.775 2907.109375 1692.345313 2977.96875 1830.704688 C 2991.835938 1737.110938 2991.71875 1659.923438 2991.601563 1626.329688 Z M 2991.601563 1626.329688 " transform="matrix(0.1,0,0,-0.1,0,343.34)"/>
    <path style="fill:none;stroke-width:35;stroke-linecap:butt;stroke-linejoin:miter;stroke:rgb(0%,0%,0%);stroke-opacity:1;stroke-miterlimit:10;" d="M 1287.34375 2412.345313 C 1260.625 2410.196875 1233.398438 2407.696875 1205.625 2404.80625 C 1175.507813 2401.603125 1146.054688 2398.126563 1117.34375 2394.3375 C 1120.117188 2356.525 1123.828125 2317.814063 1128.4375 2278.282813 C 1165.273438 2282.267188 1203.164063 2285.821875 1241.992188 2288.86875 C 1281.992188 2292.032813 1321.015625 2294.49375 1359.0625 2296.36875 C 1351.679688 2313.24375 1344.257813 2330.157813 1336.875 2347.071875 Z M 1287.34375 2412.345313 " transform="matrix(0.1,0,0,-0.1,0,343.34)"/>
    <g clip-path="url(#clip2)" clip-rule="nonzero">
      <path style="fill:none;stroke-width:20;stroke-linecap:butt;stroke-linejoin:miter;stroke:rgb(0%,0%,0%);stroke-opacity:1;stroke-miterlimit:10;" d="M 3075.507813 2051.446875 C 3068.828125 2033.126563 3061.640625 2014.610938 3053.984375 1995.939063 C 3062.8125 1990.860938 3071.40625 1985.821875 3079.765625 1980.665625 C 3113.828125 1963.126563 3147.890625 1945.626563 3181.953125 1928.0875 C 3215.351563 1913.634375 3248.75 1899.142188 3282.148438 1884.728125 C 3227.695313 1934.571875 3158.945313 1992.501563 3075.507813 2051.446875 Z M 3075.507813 2051.446875 " transform="matrix(0.1,0,0,-0.1,0,343.34)"/>
    </g>
    <g clip-path="url(#clip3)" clip-rule="nonzero">
      <path style="fill:none;stroke-width:35;stroke-linecap:butt;stroke-linejoin:miter;stroke:rgb(0%,0%,0%);stroke-opacity:1;stroke-miterlimit:10;" d="M 3225.351563 1342.579688 C 3135.625 1266.36875 3013.476563 1199.103125 2866.484375 1143.790625 C 2830.234375 1130.11875 2792.460938 1117.15 2753.28125 1105.001563 C 2717.382813 1093.86875 2680.234375 1083.360938 2642.109375 1073.55625 C 2556.796875 1051.564063 2466.054688 1033.009375 2370.859375 1018.204688 C 2349.101563 1014.80625 2327.070313 1011.564063 2304.84375 1008.634375 C 2297.265625 1007.61875 2289.6875 1006.603125 2282.070313 1005.704688 C 2281.640625 1005.5875 2281.171875 1005.509375 2280.742188 1005.509375 C 2275.78125 1004.923438 2270.859375 1004.259375 2265.898438 1003.673438 C 2260.898438 1003.009375 2255.9375 1002.384375 2250.898438 1001.876563 C 2247.890625 1001.485938 2244.882813 1001.095313 2241.875 1000.821875 C 2235.742188 1000.040625 2229.570313 999.3375 2223.359375 998.673438 C 2211.71875 997.423438 2200 996.173438 2188.203125 995.001563 C 2181.25 994.298438 2174.257813 993.634375 2167.226563 993.009375 C 2035.703125 980.704688 1897.773438 975.235938 1755.507813 977.501563 C 1731.09375 977.853125 1706.601563 978.478125 1681.953125 979.259375 C 1626.09375 981.173438 1570.859375 984.18125 1516.40625 988.282813 C 1509.335938 1002.853125 1502.304688 1017.501563 1495.351563 1032.30625 C 1492.148438 1039.142188 1488.90625 1046.017188 1485.664063 1052.970313 C 1483.984375 1056.564063 1482.34375 1060.196875 1480.664063 1063.790625 C 1476.445313 1072.93125 1472.226563 1082.189063 1468.085938 1091.407813 C 1463.90625 1100.665625 1459.765625 1109.923438 1455.625 1119.298438 C 1458.945313 1119.025 1462.265625 1118.751563 1465.664063 1118.478125 C 1488.085938 1116.603125 1510.625 1114.923438 1533.359375 1113.4 C 1582.5 1110.11875 1632.304688 1107.540625 1682.734375 1105.821875 C 1745.078125 1103.7125 1806.601563 1102.93125 1867.148438 1103.360938 C 1971.5625 1104.142188 2073.085938 1108.673438 2170.78125 1116.564063 C 2217.34375 1120.275 2262.929688 1124.80625 2307.617188 1130.079688 C 2375.46875 1138.048438 2441.09375 1147.775 2504.140625 1159.025 C 2545.625 1166.446875 2586.054688 1174.49375 2625.234375 1183.321875 C 2664.6875 1192.110938 2702.773438 1201.564063 2739.570313 1211.642188 C 2778.4375 1222.30625 2815.742188 1233.673438 2851.445313 1245.665625 L 2851.445313 1245.5875 L 2870.195313 1250.470313 Z M 3225.351563 1342.579688 " transform="matrix(0.1,0,0,-0.1,0,343.34)"/>
    </g>
    <path style="fill: none; stroke-width: 35; stroke-linecap: butt; stroke-linejoin: miter; stroke: rgb(0, 0, 0); stroke-opacity: 1; stroke-miterlimit: 10;" d="M 1013.515625 2263.829688 C 944.414063 2253.985938 877.890625 2242.30625 814.453125 2229.025 C 795 2257.657813 787.226563 2293.751563 789.453125 2332.892188 C 859.179688 2350.275 932.382813 2365.43125 1008.632813 2378.165625 C 1008.632813 2347.384375 1010 2309.103125 1013.515625 2263.829688 Z M 1013.515625 2263.829688 " transform="matrix(0.1,0,0,-0.1,0,343.34)"/>
    <path style="fill:none;stroke-width:35;stroke-linecap:butt;stroke-linejoin:miter;stroke:rgb(0%,0%,0%);stroke-opacity:1;stroke-miterlimit:10;" d="M 1377.421875 1001.36875 C 1362.890625 1003.009375 1348.398438 1004.689063 1334.023438 1006.525 L 1333.710938 1006.525 C 1268.554688 1014.571875 1204.804688 1024.259375 1142.773438 1035.353125 C 1049.726563 1052.032813 960.429688 1071.954688 875.742188 1094.80625 C 875.703125 1094.80625 875.625 1094.80625 875.625 1094.845313 C 849.179688 1101.954688 823.203125 1109.415625 797.734375 1117.032813 C 762.65625 1127.61875 728.476563 1138.634375 695.3125 1150.235938 C 603.90625 1182.071875 519.648438 1217.501563 443.90625 1256.05625 C 173.28125 1393.634375 11.328125 1570.353125 17.695313 1758.048438 C 23.867188 1940.978125 188.828125 2102.61875 455.664063 2220.860938 C 448.789063 2186.095313 445.195313 2151.525 445.976563 2118.751563 C 249.53125 2055.11875 110.546875 1909.064063 106.5625 1757.93125 C 100.78125 1538.517188 381.71875 1392.501563 423.59375 1370.74375 C 510.273438 1325.704688 702.96875 1259.845313 744.726563 1247.735938 C 746.445313 1247.228125 748.203125 1246.68125 749.882813 1246.251563 C 783.867188 1236.173438 818.828125 1226.603125 854.726563 1217.501563 C 925.3125 1199.532813 999.453125 1183.478125 1076.601563 1169.376563 C 1153.789063 1155.314063 1233.90625 1143.24375 1316.640625 1133.478125 C 1321.09375 1123.126563 1325.625 1112.892188 1330.234375 1102.696875 C 1331.328125 1100.157813 1332.460938 1097.696875 1333.632813 1095.196875 C 1336.875 1087.892188 1340.117188 1080.704688 1343.476563 1073.55625 C 1351.640625 1055.939063 1359.492188 1038.907813 1360.078125 1037.657813 C 1364.84375 1027.579688 1370.664063 1015.314063 1377.421875 1001.36875 Z M 1377.421875 1001.36875 " transform="matrix(0.1,0,0,-0.1,0,343.34)"/>
    <g clip-path="url(#clip4)" clip-rule="nonzero">
      <path style="fill:none;stroke-width:35;stroke-linecap:butt;stroke-linejoin:miter;stroke:rgb(0%,0%,0%);stroke-opacity:1;stroke-miterlimit:10;" d="M 2251.679688 2573.55625 C 2237.929688 2566.134375 2224.0625 2558.478125 2210.15625 2550.548438 C 2230.625 2547.853125 2251.015625 2544.49375 2271.445313 2540.509375 C 2264.882813 2551.642188 2258.28125 2562.61875 2251.679688 2573.55625 Z M 2649.453125 1636.095313 C 2626.601563 1718.946875 2600.507813 1803.048438 2570.976563 1887.61875 C 2557.460938 1926.290625 2543.476563 1964.454688 2529.0625 2001.99375 C 2472.773438 2069.532813 2404.960938 2113.360938 2336.015625 2141.446875 C 2377.421875 2046.095313 2416.484375 1946.173438 2452.65625 1842.61875 C 2501.875 1701.68125 2542.539063 1562.696875 2574.804688 1428.478125 C 2594.140625 1452.30625 2613.007813 1476.095313 2631.367188 1499.845313 C 2645.039063 1517.423438 2658.398438 1535.040625 2671.445313 1552.579688 C 2664.492188 1580.235938 2657.1875 1608.0875 2649.453125 1636.095313 Z M 1674.570313 3195.548438 L 1900.117188 2881.915625 L 1900.078125 2881.876563 C 1965.351563 2803.360938 2030.507813 2711.954688 2093.945313 2609.532813 C 2128.125 2628.4 2161.953125 2646.134375 2195.390625 2662.540625 C 2029.375 2914.9625 1847.304688 3101.876563 1674.570313 3195.548438 Z M 2664.882813 826.720313 C 2682.109375 445.314063 2601.757813 169.923438 2425.585938 108.439063 C 2247.851563 46.36875 2010.9375 215.5875 1785.234375 530.275 C 1754.140625 509.845313 1725.117188 491.68125 1698.320313 475.626563 C 1753.710938 386.954688 1873.28125 223.517188 2085.976563 114.064063 C 2188.59375 61.251563 2323.164063 -8.00625 2449.882813 26.99375 C 2646.40625 81.251563 2783.789063 375.314063 2768.085938 749.49375 C 2729.726563 772.110938 2696.484375 803.009375 2664.882813 826.720313 Z M 2664.882813 826.720313 " transform="matrix(0.1,0,0,-0.1,0,343.34)"/>
    </g>
    <path style="fill:none;stroke-width:35;stroke-linecap:butt;stroke-linejoin:miter;stroke:rgb(0%,0%,0%);stroke-opacity:1;stroke-miterlimit:10;" d="M 1718.007813 628.907813 C 1710.507813 623.7125 1703.007813 618.634375 1695.585938 613.634375 C 1692.578125 611.603125 1689.609375 609.571875 1686.640625 607.579688 C 1686.054688 607.15 1685.507813 606.759375 1684.960938 606.446875 C 1679.53125 602.775 1674.140625 599.18125 1668.789063 595.626563 C 1655.429688 586.759375 1642.109375 578.0875 1628.867188 569.610938 C 1613.828125 590.978125 1598.90625 612.970313 1584.101563 635.43125 C 1549.414063 687.970313 1515.46875 743.4 1482.460938 801.485938 C 1446.210938 865.040625 1411.09375 931.798438 1377.421875 1001.36875 C 1376.054688 1004.220313 1374.648438 1007.110938 1373.320313 1009.9625 C 1368.90625 1019.142188 1364.453125 1028.360938 1360.078125 1037.657813 C 1354.453125 1049.532813 1348.945313 1061.525 1343.476563 1073.55625 C 1340.117188 1080.704688 1336.875 1087.892188 1333.632813 1095.196875 C 1332.460938 1097.696875 1331.328125 1100.157813 1330.234375 1102.696875 C 1325.664063 1112.892188 1321.09375 1123.126563 1316.640625 1133.478125 C 1277.695313 1222.579688 1241.132813 1315.5875 1207.539063 1411.876563 C 1182.1875 1484.532813 1159.921875 1554.18125 1140.351563 1620.5875 C 1125.429688 1671.329688 1112.109375 1720.235938 1100.15625 1767.071875 C 1089.882813 1807.4625 1080.703125 1846.36875 1072.5 1883.7125 L 1072.5 1883.751563 C 1070.507813 1892.814063 1068.554688 1901.798438 1066.71875 1910.665625 C 1046.132813 2007.657813 1032.304688 2093.517188 1023.28125 2167.071875 C 1018.984375 2202.189063 1015.820313 2234.49375 1013.515625 2263.829688 C 1010 2309.103125 1008.632813 2347.384375 1008.632813 2378.165625 C 1008.632813 2393.86875 1009.0625 2407.657813 1009.726563 2419.376563 C 1011.484375 2450.704688 1014.023438 2481.329688 1017.070313 2511.173438 C 1025.507813 2593.946875 1038.554688 2671.173438 1054.179688 2742.032813 C 1081.484375 2866.095313 1116.5625 2970.821875 1148.554688 3052.61875 L 1144.296875 2943.55625 C 1140.234375 2905.43125 1136.210938 2867.345313 1132.226563 2829.220313 C 1127.148438 2801.36875 1123.007813 2772.15 1119.726563 2741.68125 C 1116.484375 2710.548438 1114.0625 2678.048438 1112.578125 2644.376563 L 1112.578125 2643.673438 C 1110.78125 2601.407813 1110.390625 2557.228125 1111.523438 2511.407813 C 1112.460938 2473.517188 1114.375 2434.415625 1117.34375 2394.3375 C 1120.117188 2356.525 1123.828125 2317.814063 1128.4375 2278.282813 C 1131.5625 2251.642188 1135.078125 2224.571875 1138.984375 2197.189063 C 1145.625 2150.392188 1153.476563 2102.61875 1162.617188 2053.907813 C 1173.125 1997.423438 1185.3125 1939.728125 1199.0625 1881.134375 C 1210.46875 1832.775 1222.96875 1783.751563 1236.5625 1734.220313 C 1262.226563 1640.782813 1291.875 1545.470313 1325.429688 1449.259375 C 1335.976563 1419.025 1346.796875 1389.103125 1357.851563 1359.49375 C 1357.851563 1359.415625 1357.890625 1359.376563 1357.890625 1359.259375 C 1382.460938 1293.55625 1408.085938 1229.454688 1434.6875 1167.30625 C 1434.765625 1167.189063 1434.765625 1167.071875 1434.84375 1166.99375 C 1441.71875 1150.939063 1448.59375 1135.040625 1455.625 1119.298438 C 1459.765625 1109.9625 1463.90625 1100.665625 1468.085938 1091.407813 C 1472.226563 1082.189063 1476.445313 1072.93125 1480.664063 1063.790625 C 1482.34375 1060.196875 1483.984375 1056.603125 1485.664063 1052.970313 C 1488.90625 1046.017188 1492.148438 1039.142188 1495.351563 1032.30625 C 1502.304688 1017.501563 1509.335938 1002.853125 1516.40625 988.282813 C 1539.101563 941.642188 1562.265625 896.36875 1585.898438 852.657813 C 1628.75 772.93125 1673.007813 698.126563 1718.007813 628.907813 Z M 1718.007813 628.907813 " transform="matrix(0.1,0,0,-0.1,0,343.34)"/>
    <path style="fill:none;stroke-width:35;stroke-linecap:butt;stroke-linejoin:miter;stroke:rgb(0%,0%,0%);stroke-opacity:1;stroke-miterlimit:10;" d="M 604.023438 913.55625 C 603.359375 914.454688 602.734375 915.314063 602.109375 916.251563 C 572.734375 822.423438 555.664063 734.376563 551.835938 654.454688 L 668.671875 869.376563 C 646.992188 883.048438 625.390625 897.775 604.023438 913.55625 Z M 1017.5 1664.025 C 910.117188 1525.079688 819.375 1386.251563 747.34375 1252.579688 C 746.484375 1250.939063 745.625 1249.376563 744.726563 1247.735938 C 746.445313 1247.228125 748.164063 1246.68125 749.882813 1246.251563 C 783.90625 1236.173438 818.828125 1226.642188 854.726563 1217.501563 C 900.703125 1294.298438 953.046875 1373.360938 1011.367188 1453.478125 C 1007.617188 1509.728125 1007.109375 1582.814063 1017.5 1664.025 Z M 1017.5 1664.025 " transform="matrix(0.1,0,0,-0.1,0,343.34)"/>
    <g clip-path="url(#clip5)" clip-rule="nonzero">
      <path style="fill:none;stroke-width:35;stroke-linecap:butt;stroke-linejoin:miter;stroke:rgb(0%,0%,0%);stroke-opacity:1;stroke-miterlimit:10;" d="M 2370.859375 1018.204688 C 2367.695313 1014.9625 2364.492188 1011.798438 2361.328125 1008.634375 C 2175.273438 822.61875 2005.195313 684.298438 1865.78125 585.470313 C 1837.617188 565.470313 1810.78125 547.15 1785.234375 530.275 C 1754.140625 509.845313 1725.117188 491.68125 1698.320313 475.626563 C 1629.53125 434.49375 1575.46875 407.579688 1539.765625 392.775 C 1289.882813 289.18125 1064.6875 254.689063 909.023438 242.696875 C 942.421875 257.189063 975.78125 271.759375 1009.140625 286.2125 C 1045.234375 299.18125 1081.328125 312.110938 1117.382813 325.001563 C 1172.65625 340.275 1231.210938 361.329688 1292.460938 387.696875 L 1292.578125 387.696875 C 1292.695313 387.814063 1292.96875 387.853125 1293.085938 387.970313 C 1398.476563 433.360938 1511.640625 494.415625 1628.867188 569.610938 C 1642.109375 578.0875 1655.429688 586.759375 1668.789063 595.626563 C 1674.140625 599.18125 1679.570313 602.775 1684.960938 606.446875 C 1685.507813 606.759375 1686.054688 607.15 1686.679688 607.579688 C 1689.609375 609.571875 1692.578125 611.603125 1695.585938 613.595313 C 1703.007813 618.634375 1710.507813 623.751563 1718.007813 628.907813 C 1815.898438 696.485938 1915.976563 773.321875 2016.171875 858.4 C 2066.601563 901.2125 2117.070313 946.095313 2167.265625 993.009375 C 2174.257813 993.634375 2181.25 994.298438 2188.203125 995.040625 C 2200 996.173438 2211.71875 997.423438 2223.359375 998.673438 C 2229.570313 999.3375 2235.742188 1000.040625 2241.875 1000.821875 C 2244.882813 1001.095313 2247.890625 1001.485938 2250.898438 1001.876563 C 2255.9375 1002.384375 2260.898438 1003.009375 2265.898438 1003.673438 C 2270.859375 1004.220313 2275.820313 1004.845313 2280.742188 1005.509375 C 2281.171875 1005.509375 2281.640625 1005.548438 2282.070313 1005.665625 C 2289.6875 1006.603125 2297.265625 1007.579688 2304.84375 1008.634375 C 2327.070313 1011.564063 2349.101563 1014.80625 2370.859375 1018.204688 Z M 2370.859375 1018.204688 " transform="matrix(0.1,0,0,-0.1,0,343.34)"/>
    </g>
    <g clip-path="url(#clip6)" clip-rule="nonzero">
      <path style="fill:none;stroke-width:35;stroke-linecap:butt;stroke-linejoin:miter;stroke:rgb(0%,0%,0%);stroke-opacity:1;stroke-miterlimit:10;" d="M 3075.507813 2051.446875 C 3068.828125 2033.126563 3061.640625 2014.610938 3053.984375 1995.939063 C 3032.1875 1942.15 3006.757813 1886.954688 2977.96875 1830.704688 C 2907.109375 1692.345313 2815.585938 1547.775 2705.78125 1402.657813 C 2674.570313 1361.329688 2641.835938 1320.001563 2607.578125 1278.790625 C 2574.492188 1238.7125 2539.960938 1198.790625 2504.140625 1159.025 C 2441.09375 1147.775 2375.46875 1138.048438 2307.578125 1130.079688 C 2356.875 1180.235938 2404.21875 1230.821875 2449.453125 1281.525 C 2493.203125 1330.43125 2534.960938 1379.532813 2574.804688 1428.478125 C 2594.140625 1452.30625 2613.007813 1476.095313 2631.367188 1499.80625 C 2645.039063 1517.423438 2658.398438 1535.040625 2671.445313 1552.579688 C 2783.4375 1702.61875 2875.039063 1849.3375 2942.96875 1985.821875 C 2952.148438 2004.259375 2960.898438 2022.4625 2969.21875 2040.509375 C 2969.21875 2040.509375 2984.6875 2074.142188 2997.109375 2104.18125 C 3008.515625 2131.8375 3136.5625 2494.18125 2985.078125 2649.923438 C 2821.328125 2818.282813 2414.648438 2659.259375 2251.640625 2573.55625 C 2234.453125 2564.532813 2220.273438 2556.485938 2210.15625 2550.548438 C 2151.71875 2558.439063 2093.4375 2561.095313 2036.679688 2558.360938 C 2024.804688 2557.814063 2013.085938 2556.99375 2001.523438 2556.017188 C 2032.539063 2574.767188 2063.359375 2592.657813 2093.945313 2609.532813 C 2128.125 2628.4 2161.953125 2646.134375 2195.390625 2662.501563 C 2563.789063 2843.751563 2884.179688 2875.626563 3045.976563 2713.790625 C 3179.492188 2580.275 3181.015625 2338.751563 3075.507813 2051.446875 Z M 3075.507813 2051.446875 " transform="matrix(0.1,0,0,-0.1,0,343.34)"/>
    </g>
    <path style="fill:none;stroke-width:35;stroke-linecap:butt;stroke-linejoin:miter;stroke:rgb(0%,0%,0%);stroke-opacity:1;stroke-miterlimit:10;" d="M 1550.3125 3221.603125 C 1550.3125 3114.298438 1463.28125 3027.30625 1355.976563 3027.30625 C 1248.671875 3027.30625 1161.679688 3114.298438 1161.679688 3221.603125 C 1161.679688 3328.946875 1248.671875 3415.939063 1355.976563 3415.939063 C 1463.28125 3415.939063 1550.3125 3328.946875 1550.3125 3221.603125 Z M 1550.3125 3221.603125 " transform="matrix(0.1,0,0,-0.1,0,343.34)"/>
    <g clip-path="url(#clip7)" clip-rule="nonzero">
      <path style="fill:none;stroke-width:35;stroke-linecap:butt;stroke-linejoin:miter;stroke:rgb(0%,0%,0%);stroke-opacity:1;stroke-miterlimit:10;" d="M 3547.695313 1631.720313 C 3547.695313 1524.415625 3460.703125 1437.423438 3353.398438 1437.423438 C 3246.09375 1437.423438 3159.101563 1524.415625 3159.101563 1631.720313 C 3159.101563 1739.025 3246.09375 1826.017188 3353.398438 1826.017188 C 3460.703125 1826.017188 3547.695313 1739.025 3547.695313 1631.720313 Z M 3547.695313 1631.720313 " transform="matrix(0.1,0,0,-0.1,0,343.34)"/>
    </g>
    <g clip-path="url(#clip8)" clip-rule="nonzero">
      <path style="fill:none;stroke-width:35;stroke-linecap:butt;stroke-linejoin:miter;stroke:rgb(0%,0%,0%);stroke-opacity:1;stroke-miterlimit:10;" d="M 869.921875 350.665625 C 869.921875 243.360938 782.929688 156.36875 675.625 156.36875 C 568.320313 156.36875 481.289063 243.360938 481.289063 350.665625 C 481.289063 458.009375 568.320313 545.001563 675.625 545.001563 C 782.929688 545.001563 869.921875 458.009375 869.921875 350.665625 Z M 869.921875 350.665625 " transform="matrix(0.1,0,0,-0.1,0,343.34)"/>
    </g>
  </g>
</svg>